<svg id="Layer_1" data-name="Layer 1" xmlns="http://www.w3.org/2000/svg" viewBox="0 0 112.39 112.39"><defs><style>.cls-1,.cls-2{fill:none;stroke:#163523;stroke-width:5px;}.cls-1{stroke-miterlimit:10;}.cls-2{stroke-linecap:round;stroke-linejoin:round;}</style></defs><circle class="cls-1" cx="56.19" cy="56.19" r="53.69"/><path class="cls-2" d="M60.49,52.47S77.43,46.06,81.82,30c.46-1.69,1.65-4.06,6-3.6s5,6,5,6,2,8.41-5.56,21.93c0,0,13.53-.37,18,0,1.67.13,5.56.9,5,4.5A8.47,8.47,0,0,1,107.34,64a12.84,12.84,0,0,1,1,5.63c-.22,2.85-4.28,4.5-4.28,4.5s1.58,2.7,1.06,4.88a6.92,6.92,0,0,1-2.86,4.51c-1.35.82.45,2.17.45,5.55a3.87,3.87,0,0,1-3.83,4.21,133.84,133.84,0,0,1-20.42,0c-4.8-.48-10-1.65-18.77-4.58l.75-36.27Z" transform="translate(-28.81 -3.81)"/></svg>